<svg 
 xmlns="http://www.w3.org/2000/svg"
 xmlns:xlink="http://www.w3.org/1999/xlink"
 width="49px" height="61px">
<path fill-rule="evenodd"  fill="rgb(255, 126, 0)"
 d="M21.249,13.554 C22.316,13.158 23.473,13.203 24.506,13.681 C26.639,14.666 27.575,17.210 26.592,19.351 C25.875,20.915 24.330,21.837 22.718,21.837 C22.123,21.837 21.519,21.712 20.943,21.446 C19.910,20.968 19.124,20.115 18.730,19.044 C18.336,17.973 18.381,16.812 18.857,15.776 C19.332,14.738 20.182,13.949 21.249,13.554 ZM20.373,18.435 C20.605,19.066 21.068,19.568 21.676,19.849 C22.931,20.430 24.424,19.876 25.002,18.616 C25.580,17.355 25.029,15.858 23.773,15.277 C23.439,15.123 23.083,15.045 22.726,15.045 C22.433,15.045 22.139,15.098 21.856,15.202 C21.228,15.435 20.728,15.900 20.448,16.510 C20.167,17.121 20.141,17.805 20.373,18.435 ZM48.915,13.184 L47.893,16.324 C47.414,17.798 46.281,18.971 44.854,19.518 C44.840,20.030 44.753,20.538 44.592,21.035 C44.592,21.035 44.592,21.035 44.591,21.035 L43.835,23.357 C43.114,25.576 41.066,27.067 38.740,27.067 C38.173,27.067 37.612,26.977 37.073,26.799 C34.676,26.013 33.205,23.679 33.396,21.259 C32.597,22.833 31.533,24.645 30.254,26.614 C31.838,25.432 34.071,25.368 35.737,26.605 C36.903,27.473 37.600,28.861 37.600,30.319 C37.600,31.311 37.287,32.260 36.696,33.063 L31.332,40.335 L36.641,43.557 C37.893,44.316 38.480,45.831 38.069,47.239 L34.534,59.859 C34.471,60.085 34.320,60.276 34.116,60.390 C33.985,60.463 33.839,60.500 33.692,60.500 C33.609,60.500 33.526,60.488 33.446,60.465 L28.932,59.138 C28.472,59.003 28.206,58.522 28.335,58.058 L30.744,49.394 L22.675,44.392 C21.941,43.937 21.393,43.296 21.055,42.565 L20.069,44.340 L14.052,55.169 L16.674,56.776 L23.520,47.796 C23.814,47.410 24.364,47.337 24.748,47.632 C25.132,47.927 25.205,48.478 24.911,48.864 L17.586,58.472 C17.415,58.697 17.155,58.817 16.891,58.817 C16.734,58.817 16.577,58.776 16.435,58.689 L12.421,56.230 C12.020,55.984 11.883,55.464 12.113,55.052 L21.192,38.710 C21.195,38.706 21.197,38.701 21.199,38.696 L21.471,38.208 C21.472,38.206 21.474,38.203 21.475,38.201 L21.476,38.200 C21.494,38.165 21.515,38.131 21.538,38.099 C21.541,38.095 21.543,38.091 21.546,38.087 L22.952,36.181 C22.953,36.180 22.954,36.178 22.955,36.177 L25.797,32.325 L18.129,31.465 C18.044,31.457 17.960,31.444 17.878,31.428 C17.872,31.427 17.867,31.426 17.861,31.425 C17.785,31.409 17.710,31.390 17.637,31.369 C17.624,31.365 17.610,31.361 17.597,31.357 C17.531,31.337 17.467,31.313 17.404,31.288 C17.379,31.278 17.355,31.268 17.330,31.258 C17.279,31.235 17.228,31.211 17.178,31.185 C17.144,31.168 17.109,31.150 17.076,31.131 C17.036,31.108 16.997,31.084 16.959,31.060 C16.921,31.036 16.883,31.011 16.847,30.985 C16.812,30.960 16.779,30.935 16.746,30.910 C16.711,30.882 16.677,30.854 16.644,30.826 C16.609,30.795 16.575,30.764 16.542,30.733 C16.514,30.706 16.486,30.678 16.459,30.650 C16.422,30.612 16.387,30.573 16.353,30.533 C16.341,30.519 16.328,30.506 16.316,30.492 C15.920,30.008 15.707,29.415 15.703,28.798 C15.703,28.794 15.703,28.790 15.703,28.787 C15.702,28.753 15.703,28.719 15.705,28.684 C15.705,28.672 15.705,28.660 15.705,28.648 C15.707,28.620 15.709,28.592 15.711,28.563 C15.713,28.546 15.714,28.529 15.715,28.512 C15.859,27.027 17.178,25.936 18.658,26.081 C18.662,26.082 18.666,26.082 18.671,26.083 L27.821,27.109 C29.833,24.140 31.396,21.481 32.350,19.400 C33.041,17.894 33.338,16.288 33.372,14.684 L17.985,7.571 C16.791,8.640 15.768,9.909 15.077,11.414 L14.938,11.722 C14.739,12.165 14.221,12.362 13.780,12.162 C13.339,11.963 13.142,11.443 13.341,11.000 L13.485,10.682 C14.289,8.930 15.541,7.336 17.196,5.938 C17.222,5.910 17.249,5.883 17.279,5.859 C22.317,1.664 29.433,0.591 30.005,0.510 C30.018,0.509 30.028,0.507 30.033,0.507 C30.047,0.505 30.060,0.505 30.074,0.504 C30.396,0.476 30.709,0.626 30.886,0.901 C31.055,1.163 35.023,7.405 35.125,14.109 C35.126,14.147 35.124,14.185 35.119,14.223 C35.123,14.702 35.106,15.171 35.070,15.632 L35.437,14.507 C36.201,12.158 38.726,10.871 41.067,11.639 L44.384,12.728 C44.426,12.742 44.471,12.744 44.515,12.735 L47.910,12.050 C48.215,11.988 48.530,12.094 48.737,12.328 C48.944,12.561 49.011,12.887 48.915,13.184 ZM22.991,39.082 L22.726,39.560 C22.080,40.729 22.461,42.194 23.595,42.897 L32.225,48.246 C32.557,48.452 32.713,48.853 32.608,49.230 L30.254,57.696 L33.088,58.528 L36.385,46.754 C36.576,46.101 36.307,45.409 35.735,45.062 C35.735,45.062 35.735,45.062 35.735,45.062 L26.872,39.683 L23.885,37.871 L22.991,39.082 ZM24.932,36.452 L27.866,38.232 L29.827,39.422 L35.288,32.018 C35.655,31.520 35.849,30.933 35.849,30.319 C35.849,29.403 35.428,28.564 34.695,28.018 C33.934,27.453 32.983,27.327 32.142,27.593 L32.701,27.655 C33.415,27.727 34.059,28.072 34.515,28.629 C34.972,29.187 35.185,29.890 35.116,30.609 C35.046,31.328 34.701,31.977 34.145,32.436 C33.659,32.838 33.061,33.053 32.438,33.053 C32.350,33.053 32.262,33.048 32.173,33.040 C32.168,33.039 32.164,33.039 32.160,33.038 L27.809,32.551 L24.932,36.452 ZM18.789,27.865 L18.483,27.831 C18.453,27.828 18.422,27.826 18.392,27.827 C18.377,27.827 18.361,27.828 18.346,27.829 C18.331,27.830 18.316,27.830 18.302,27.831 C18.284,27.833 18.267,27.836 18.249,27.839 C18.237,27.841 18.225,27.843 18.214,27.845 C18.195,27.848 18.177,27.853 18.159,27.858 C18.148,27.861 18.138,27.863 18.128,27.866 C18.109,27.872 18.091,27.878 18.073,27.885 C18.064,27.888 18.054,27.891 18.045,27.895 C18.027,27.902 18.009,27.911 17.991,27.919 C17.983,27.924 17.975,27.927 17.966,27.932 C17.949,27.941 17.931,27.950 17.914,27.961 C17.906,27.966 17.899,27.970 17.891,27.975 C17.874,27.986 17.858,27.997 17.842,28.009 C17.835,28.014 17.827,28.020 17.820,28.025 C17.804,28.037 17.789,28.050 17.774,28.063 C17.767,28.069 17.761,28.076 17.754,28.082 C17.739,28.095 17.726,28.109 17.712,28.123 C17.705,28.130 17.699,28.138 17.692,28.145 C17.680,28.159 17.667,28.174 17.656,28.188 C17.649,28.197 17.643,28.206 17.636,28.215 C17.625,28.229 17.615,28.244 17.605,28.260 C17.599,28.269 17.593,28.280 17.587,28.290 C17.578,28.305 17.569,28.320 17.561,28.335 C17.555,28.347 17.549,28.359 17.544,28.371 C17.537,28.386 17.530,28.400 17.524,28.416 C17.518,28.429 17.513,28.443 17.509,28.457 C17.503,28.472 17.498,28.486 17.494,28.501 C17.489,28.517 17.485,28.534 17.481,28.551 C17.478,28.564 17.474,28.576 17.471,28.590 C17.467,28.614 17.463,28.639 17.460,28.664 C17.460,28.670 17.459,28.676 17.458,28.682 C17.457,28.691 17.457,28.700 17.457,28.710 C17.455,28.732 17.453,28.755 17.453,28.778 C17.454,28.786 17.455,28.795 17.455,28.803 C17.455,28.826 17.456,28.850 17.459,28.873 C17.459,28.876 17.460,28.880 17.460,28.884 C17.506,29.282 17.803,29.615 18.200,29.700 C18.204,29.701 18.207,29.702 18.211,29.702 C18.242,29.709 18.274,29.714 18.306,29.716 C18.310,29.717 18.314,29.717 18.318,29.718 L19.056,29.800 L19.311,27.923 L18.789,27.865 ZM29.784,29.097 L21.052,28.118 L20.797,29.996 L32.347,31.291 C32.596,31.313 32.840,31.238 33.033,31.079 C33.228,30.918 33.348,30.691 33.373,30.439 C33.423,29.919 33.043,29.455 32.525,29.404 C32.520,29.404 32.516,29.404 32.512,29.403 L29.794,29.098 C29.791,29.098 29.788,29.098 29.784,29.097 ZM33.211,12.067 C33.206,12.034 33.202,12.000 33.197,11.966 C33.185,11.882 33.172,11.798 33.159,11.714 C33.154,11.679 33.148,11.644 33.142,11.609 C33.099,11.342 33.050,11.076 32.997,10.812 C32.988,10.770 32.980,10.727 32.971,10.684 C32.955,10.610 32.940,10.535 32.923,10.461 C32.913,10.412 32.902,10.364 32.891,10.316 C32.866,10.207 32.841,10.098 32.814,9.989 C32.798,9.923 32.783,9.857 32.766,9.791 C32.751,9.731 32.735,9.671 32.720,9.611 C32.703,9.548 32.687,9.485 32.670,9.422 C32.655,9.367 32.640,9.311 32.625,9.257 C32.603,9.176 32.580,9.095 32.557,9.014 C32.547,8.979 32.537,8.943 32.527,8.908 C32.493,8.793 32.459,8.680 32.425,8.567 C32.414,8.532 32.403,8.497 32.392,8.462 C32.364,8.373 32.336,8.283 32.308,8.195 C32.298,8.165 32.289,8.137 32.280,8.107 C32.201,7.866 32.120,7.629 32.038,7.397 C32.034,7.387 32.031,7.378 32.027,7.368 C31.194,5.033 30.194,3.182 29.708,2.343 C28.104,2.639 23.368,3.692 19.535,6.353 L33.288,12.710 C33.266,12.495 33.240,12.280 33.211,12.067 ZM35.308,20.559 C34.690,22.458 35.726,24.508 37.618,25.129 C37.982,25.249 38.359,25.309 38.740,25.309 C40.306,25.309 41.685,24.305 42.171,22.811 L42.927,20.489 C42.995,20.280 43.044,20.068 43.073,19.855 C42.986,19.855 42.898,19.853 42.811,19.849 C42.799,19.848 42.787,19.847 42.775,19.847 C42.563,19.836 42.352,19.811 42.143,19.773 C42.131,19.771 42.118,19.769 42.106,19.767 C42.006,19.748 41.907,19.726 41.808,19.701 C41.791,19.697 41.774,19.692 41.758,19.688 C41.658,19.661 41.558,19.633 41.459,19.601 L39.854,19.073 C39.819,19.062 39.784,19.053 39.749,19.045 C39.738,19.042 39.727,19.041 39.716,19.039 C39.691,19.034 39.667,19.030 39.643,19.027 C39.635,19.026 39.627,19.026 39.619,19.025 C39.591,19.022 39.563,19.020 39.535,19.020 C39.533,19.020 39.529,19.020 39.527,19.020 C39.143,19.018 38.780,19.224 38.586,19.562 C38.586,19.563 38.585,19.564 38.584,19.565 C38.569,19.592 38.556,19.619 38.543,19.647 C38.540,19.652 38.538,19.658 38.535,19.663 C38.521,19.696 38.508,19.730 38.496,19.765 L38.448,19.910 C38.435,19.951 38.418,19.990 38.399,20.028 C38.395,20.036 38.391,20.044 38.387,20.051 C38.367,20.087 38.346,20.122 38.322,20.154 C38.318,20.159 38.314,20.165 38.310,20.170 C38.287,20.199 38.263,20.227 38.237,20.254 C38.233,20.257 38.229,20.262 38.225,20.266 C38.196,20.294 38.165,20.319 38.133,20.343 C38.127,20.347 38.121,20.352 38.114,20.356 C38.081,20.379 38.046,20.401 38.010,20.419 C38.010,20.419 38.010,20.419 38.010,20.419 C37.973,20.437 37.935,20.453 37.897,20.465 C37.890,20.468 37.883,20.470 37.876,20.473 C37.838,20.484 37.799,20.494 37.760,20.501 C37.754,20.501 37.748,20.502 37.742,20.503 C37.704,20.508 37.666,20.511 37.628,20.512 C37.624,20.512 37.621,20.513 37.617,20.513 C37.616,20.513 37.615,20.512 37.613,20.512 C37.574,20.512 37.534,20.509 37.493,20.503 C37.485,20.501 37.476,20.500 37.467,20.498 C37.427,20.491 37.386,20.482 37.345,20.469 L35.531,19.874 L35.308,20.559 ZM44.860,14.459 C44.521,14.527 44.168,14.507 43.840,14.399 L40.523,13.310 C39.100,12.844 37.565,13.626 37.101,15.053 L36.075,18.203 L36.078,18.204 L37.146,18.554 C37.188,18.490 37.233,18.428 37.280,18.367 C37.282,18.364 37.284,18.361 37.286,18.359 C37.331,18.301 37.378,18.246 37.427,18.191 C37.429,18.188 37.432,18.185 37.435,18.182 C37.636,17.962 37.873,17.774 38.139,17.625 C38.145,17.622 38.150,17.619 38.156,17.615 C38.184,17.600 38.211,17.584 38.240,17.569 C38.766,17.302 39.348,17.207 39.920,17.291 C39.926,17.291 39.932,17.292 39.937,17.293 C40.010,17.304 40.082,17.318 40.154,17.335 C40.163,17.337 40.172,17.339 40.181,17.341 C40.254,17.359 40.326,17.379 40.398,17.403 L42.004,17.930 C42.574,18.117 43.183,18.148 43.765,18.017 C44.919,17.760 45.863,16.902 46.229,15.778 L46.784,14.070 L44.860,14.459 ZM13.696,14.922 C11.600,20.989 9.728,29.692 9.077,36.338 L11.275,37.354 L12.382,33.614 C12.394,33.573 12.409,33.534 12.426,33.496 C12.729,32.835 13.271,32.333 13.951,32.080 C14.631,31.828 15.368,31.857 16.027,32.161 C16.686,32.466 17.187,33.009 17.438,33.692 C17.689,34.375 17.661,35.115 17.357,35.776 C17.340,35.814 17.320,35.851 17.297,35.886 L15.185,39.162 L17.946,40.438 C18.385,40.641 18.577,41.163 18.375,41.604 C18.228,41.926 17.911,42.116 17.579,42.116 C17.457,42.116 17.332,42.090 17.214,42.035 L14.224,40.653 L12.218,43.764 C11.953,44.175 11.514,44.404 11.057,44.404 C10.861,44.404 10.661,44.362 10.470,44.273 C9.836,43.981 9.521,43.281 9.719,42.609 L10.771,39.056 L7.782,37.674 C7.446,37.519 7.243,37.168 7.276,36.798 C7.878,29.955 9.838,20.723 12.042,14.346 C12.200,13.888 12.699,13.645 13.156,13.804 C13.613,13.963 13.855,14.464 13.696,14.922 ZM15.788,34.992 C15.875,34.770 15.878,34.527 15.795,34.301 C15.706,34.059 15.529,33.866 15.295,33.758 C15.061,33.650 14.799,33.640 14.558,33.729 C14.333,33.813 14.151,33.973 14.040,34.184 L12.115,40.690 L15.788,34.992 ZM7.948,46.646 L10.535,46.646 C11.018,46.646 11.410,47.039 11.410,47.525 C11.410,48.010 11.018,48.403 10.535,48.403 L7.948,48.403 C7.464,48.403 7.072,48.010 7.072,47.525 C7.072,47.039 7.464,46.646 7.948,46.646 ZM11.410,52.570 C11.410,53.055 11.018,53.449 10.535,53.449 L4.420,53.449 C3.937,53.449 3.545,53.055 3.545,52.570 C3.545,52.084 3.937,51.691 4.420,51.691 L10.535,51.691 C11.018,51.691 11.410,52.084 11.410,52.570 ZM11.410,57.615 C11.410,58.101 11.018,58.494 10.535,58.494 L1.834,58.494 C1.350,58.494 0.958,58.101 0.958,57.615 C0.958,57.130 1.350,56.736 1.834,56.736 L10.535,56.736 C11.018,56.736 11.410,57.130 11.410,57.615 Z"/>
</svg>