<svg 
 xmlns="http://www.w3.org/2000/svg"
 xmlns:xlink="http://www.w3.org/1999/xlink"
 width="55px" height="61px">
<path fill-rule="evenodd"  fill="rgb(255, 126, 0)"
 d="M27.958,60.500 C27.105,60.500 26.255,60.250 25.500,59.779 L2.350,45.290 C1.491,44.752 0.958,43.672 0.959,42.470 C0.959,41.270 1.492,40.191 2.350,39.654 L7.412,36.486 L2.350,33.318 C1.492,32.780 0.959,31.700 0.959,30.500 C0.959,29.300 1.491,28.220 2.349,27.683 L7.412,24.514 L2.349,21.345 C1.492,20.808 0.959,19.728 0.959,18.528 C0.959,17.327 1.492,16.248 2.349,15.711 L25.499,1.222 C26.254,0.750 27.105,0.500 27.958,0.500 C28.812,0.500 29.662,0.750 30.417,1.222 L53.567,15.710 C54.425,16.248 54.958,17.327 54.958,18.528 C54.958,19.711 54.440,20.778 53.603,21.322 L53.520,21.355 L53.489,21.394 L48.504,24.514 L53.567,27.683 C54.425,28.220 54.958,29.300 54.958,30.500 C54.958,31.700 54.425,32.780 53.567,33.318 L48.504,36.486 L53.567,39.655 C54.425,40.191 54.958,41.270 54.958,42.471 C54.958,43.672 54.425,44.752 53.567,45.290 L30.417,59.779 C29.662,60.250 28.812,60.500 27.958,60.500 ZM3.001,41.285 C2.634,41.514 2.415,41.958 2.415,42.471 C2.415,42.985 2.634,43.429 3.001,43.659 L26.151,58.148 C26.706,58.495 27.331,58.679 27.958,58.679 C28.585,58.679 29.210,58.495 29.766,58.148 L52.916,43.659 C53.283,43.429 53.502,42.985 53.502,42.471 C53.502,41.958 53.283,41.515 52.916,41.285 L46.876,37.505 L30.417,47.806 C29.662,48.278 28.812,48.528 27.958,48.528 C27.105,48.528 26.255,48.278 25.500,47.806 L9.041,37.505 L3.001,41.285 ZM3.001,29.313 C2.634,29.543 2.415,29.987 2.415,30.500 C2.415,31.013 2.634,31.457 3.001,31.687 L26.151,46.175 C26.706,46.523 27.331,46.707 27.958,46.707 C28.585,46.707 29.210,46.523 29.766,46.175 L52.916,31.687 C53.283,31.457 53.502,31.013 53.502,30.500 C53.502,29.987 53.283,29.543 52.916,29.313 L46.876,25.533 L30.417,35.834 C29.662,36.306 28.812,36.556 27.958,36.556 C27.104,36.556 26.254,36.306 25.500,35.834 L9.041,25.533 L3.001,29.313 ZM27.959,2.321 C27.331,2.321 26.706,2.505 26.150,2.852 L3.001,17.341 C2.634,17.571 2.415,18.015 2.415,18.528 C2.415,19.041 2.634,19.485 3.001,19.715 L26.151,34.204 C26.707,34.551 27.332,34.735 27.958,34.735 C28.585,34.735 29.210,34.551 29.766,34.204 L52.915,19.715 C53.283,19.485 53.502,19.041 53.502,18.528 C53.502,18.014 53.283,17.571 52.916,17.341 L29.766,2.852 C29.210,2.505 28.585,2.321 27.959,2.321 Z"/>
</svg>